<svg id="visual" viewBox="0 0 1960 1340" width="1960" height="1340" xmlns="http://www.w3.org/2000/svg" xmlns:xlink="http://www.w3.org/1999/xlink" version="1.1"><path d="M331 0L357.2 31.8C383.3 63.7 435.7 127.3 441.8 191.2C448 255 408 319 385.2 382.8C362.3 446.7 356.7 510.3 368.5 574.2C380.3 638 409.7 702 418.8 765.8C428 829.7 417 893.3 399.3 957.2C381.7 1021 357.3 1085 358.7 1148.8C360 1212.7 387 1276.3 400.5 1308.2L414 1340L0 1340L0 1308.2C0 1276.3 0 1212.7 0 1148.8C0 1085 0 1021 0 957.2C0 893.3 0 829.7 0 765.8C0 702 0 638 0 574.2C0 510.3 0 446.7 0 382.8C0 319 0 255 0 191.2C0 127.3 0 63.7 0 31.8L0 0Z" fill="#d9c7a6"></path><path d="M407 0L406.7 31.8C406.3 63.7 405.7 127.3 381.8 191.2C358 255 311 319 298.2 382.8C285.3 446.7 306.7 510.3 310.8 574.2C315 638 302 702 304.5 765.8C307 829.7 325 893.3 319.7 957.2C314.3 1021 285.7 1085 278 1148.8C270.3 1212.7 283.7 1276.3 290.3 1308.2L297 1340L0 1340L0 1308.2C0 1276.3 0 1212.7 0 1148.8C0 1085 0 1021 0 957.2C0 893.3 0 829.7 0 765.8C0 702 0 638 0 574.2C0 510.3 0 446.7 0 382.8C0 319 0 255 0 191.2C0 127.3 0 63.7 0 31.8L0 0Z" fill="#d2bd97"></path><path d="M339 0L316.8 31.8C294.7 63.7 250.3 127.3 250.7 191.2C251 255 296 319 317.2 382.8C338.3 446.7 335.7 510.3 320.3 574.2C305 638 277 702 267.8 765.8C258.7 829.7 268.3 893.3 271 957.2C273.7 1021 269.3 1085 263 1148.8C256.7 1212.7 248.3 1276.3 244.2 1308.2L240 1340L0 1340L0 1308.2C0 1276.3 0 1212.7 0 1148.8C0 1085 0 1021 0 957.2C0 893.3 0 829.7 0 765.8C0 702 0 638 0 574.2C0 510.3 0 446.7 0 382.8C0 319 0 255 0 191.2C0 127.3 0 63.7 0 31.8L0 0Z" fill="#cbb488"></path><path d="M229 0L229.3 31.8C229.7 63.7 230.3 127.3 234.2 191.2C238 255 245 319 248.3 382.8C251.7 446.7 251.3 510.3 254.8 574.2C258.3 638 265.7 702 257.7 765.8C249.7 829.7 226.3 893.3 225.3 957.2C224.3 1021 245.7 1085 252.7 1148.8C259.7 1212.7 252.3 1276.3 248.7 1308.2L245 1340L0 1340L0 1308.2C0 1276.3 0 1212.7 0 1148.8C0 1085 0 1021 0 957.2C0 893.3 0 829.7 0 765.8C0 702 0 638 0 574.2C0 510.3 0 446.7 0 382.8C0 319 0 255 0 191.2C0 127.3 0 63.7 0 31.8L0 0Z" fill="#bda678"></path><path d="M186 0L173 31.8C160 63.7 134 127.3 130.3 191.2C126.7 255 145.3 319 149.3 382.8C153.3 446.7 142.7 510.3 137.8 574.2C133 638 134 702 139.3 765.8C144.7 829.7 154.3 893.3 153.7 957.2C153 1021 142 1085 136.2 1148.8C130.3 1212.7 129.7 1276.3 129.3 1308.2L129 1340L0 1340L0 1308.2C0 1276.3 0 1212.7 0 1148.8C0 1085 0 1021 0 957.2C0 893.3 0 829.7 0 765.8C0 702 0 638 0 574.2C0 510.3 0 446.7 0 382.8C0 319 0 255 0 191.2C0 127.3 0 63.7 0 31.8L0 0Z" fill="#a9936a"></path><path d="M121 0L113.5 31.8C106 63.7 91 127.3 88.5 191.2C86 255 96 319 97.3 382.8C98.7 446.7 91.3 510.3 93.8 574.2C96.3 638 108.7 702 113.2 765.8C117.7 829.7 114.3 893.3 114.3 957.2C114.3 1021 117.7 1085 112 1148.8C106.3 1212.7 91.7 1276.3 84.3 1308.2L77 1340L0 1340L0 1308.2C0 1276.3 0 1212.7 0 1148.8C0 1085 0 1021 0 957.2C0 893.3 0 829.7 0 765.8C0 702 0 638 0 574.2C0 510.3 0 446.7 0 382.8C0 319 0 255 0 191.2C0 127.3 0 63.7 0 31.8L0 0Z" fill="#95815b"></path></svg>