<?xml version="1.0" standalone="no"?><svg xmlns="http://www.w3.org/2000/svg" viewBox="0 0 1440 320"><path fill="#fefaee" fill-opacity="1" d="M0,320L30,314.7C60,309,120,299,180,282.7C240,267,300,245,360,218.7C420,192,480,160,540,133.3C600,107,660,85,720,96C780,107,840,149,900,160C960,171,1020,149,1080,128C1140,107,1200,85,1260,69.3C1320,53,1380,43,1410,37.3L1440,32L1440,0L1410,0C1380,0,1320,0,1260,0C1200,0,1140,0,1080,0C1020,0,960,0,900,0C840,0,780,0,720,0C660,0,600,0,540,0C480,0,420,0,360,0C300,0,240,0,180,0C120,0,60,0,30,0L0,0Z"></path></svg>